<?xml version="1.0" encoding="utf-8"?>
<!-- Generator: Adobe Illustrator 19.2.0, SVG Export Plug-In . SVG Version: 6.00 Build 0)  -->
<svg version="1.1" id="robot" xmlns="http://www.w3.org/2000/svg" xmlns:xlink="http://www.w3.org/1999/xlink" x="0px" y="0px"
	 viewBox="0 0 225 268" style="enable-background:new 0 0 225 268;" xml:space="preserve">
<style type="text/css">
	.st0{fill:#333333;}
	.st1{fill:#FE0000;}
	.st2{fill:#C1272D;}
	.st3{fill:#055E9C;}
	.st4{fill:#0071BC;}
	.st5{fill:#CBC424;}
	.st6{fill:#FFFF00;}
	.st7{fill:#189960;}
	.st8{fill:#22B573;}
	.st9{fill:#C4161C;}
	.st10{fill:#FFFFFF;}
	.st11{fill:none;stroke:#F2F2F2;stroke-linejoin:round;}
	.st12{fill:none;stroke:#C1272D;stroke-miterlimit:10;}
	.st13{fill:#E6E6E6;}
	.st14{fill:none;stroke:#000000;stroke-width:3;stroke-linecap:round;stroke-miterlimit:10;}
	.st15{fill:#333333;stroke:#FFFFFF;stroke-width:2;stroke-miterlimit:10;}
	.st16{fill:none;stroke:#C1272D;stroke-width:3;stroke-miterlimit:10;}
	.st17{fill:#1A1A1A;}
	.st18{fill:#D71920;}
	.st19{fill:none;}
</style>
<title>robot</title>
<path id="_Path_" class="st0" d="M196.7,118c-6.3-5.7-16-5.2-21.7,1.2c-5.3,5.8-5.3,14.7,0,20.6c-6.3-5.7-6.8-15.4-1.2-21.7
	s15.4-6.8,21.7-1.2C196,117.2,196.4,117.6,196.7,118z"/>
<path id="_Path_2" class="st1" d="M206,166.7l-13,3.5l-6.9-25.4l-0.3-1c4.9-0.1,9.4-2.6,12.2-6.6l0.5,1.7L206,166.7z"/>
<g id="_Group_">
	<path id="_Path_3" class="st1" d="M193.4,184.2l-6.2,22.9l13,3.5l6.8-25C202.7,188.3,197.1,187.7,193.4,184.2z"/>
	<path id="_Path_4" class="st2" d="M201.1,185.3c-2.7,0-5.2-1-7.2-2.7l-0.4,1.6c3.7,3.5,9.3,4.1,13.6,1.4l0.7-2.5
		C205.8,184.5,203.5,185.3,201.1,185.3z"/>
	<path id="_Path_5" class="st0" d="M212.2,174.2c0,0.3,0,0.7,0,1c-0.6,6.1-6,10.6-12.1,10.1c-5.4-0.5-9.6-4.7-10.1-10.1
		c0-0.3,0-0.7,0-1c-0.6-6.1,3.9-11.6,10-12.2c6.1-0.6,11.6,3.9,12.2,10C212.3,172.7,212.3,173.4,212.2,174.2z"/>
</g>
<path id="_Path_6" class="st0" d="M145.9,45.2l0.4,0.1c6,1.3,9.8,7.3,8.4,13.3c-0.9,4.2-4.2,7.5-8.4,8.4l-0.5,0.1
	c0.1,0,0.1,0,0.1-0.1L145.9,45.2C146,45.3,146,45.2,145.9,45.2z"/>
<path id="_Path_7" class="st0" d="M63.8,56.2c0.1,4.6,3,8.7,7.2,10.4V45.7C66.7,47.4,63.8,51.5,63.8,56.2z"/>
<circle id="_Path_8" class="st0" cx="193.3" cy="211.2" r="7.5"/>
<path id="_Path_9" d="M180.6,221.1c0,0.7,0.6,1.3,1.3,1.2c0.4,0,0.8-0.2,1-0.6c0-0.1,0.1-0.2,0.1-0.2c0.9-1.5,2.5-2.4,4.3-2.4
	c2.8,0,5,2.2,5,5c0,0.8-0.2,1.6-0.6,2.4c-0.1,0.1-0.1,0.1-0.1,0.2c-0.1,0.2-0.1,0.3-0.1,0.5c0,0.7,0.6,1.3,1.2,1.3
	c0.4,0,0.8-0.2,1-0.6c0.1-0.1,0.1-0.1,0.1-0.2c0.6-1.1,0.9-2.3,0.9-3.6c0-4.1-3.4-7.5-7.5-7.5c-2.7,0-5.2,1.4-6.5,3.8
	c-0.1,0.1-0.1,0.1-0.1,0.2C180.6,220.8,180.6,221,180.6,221.1z"/>
<path id="_Path_10" class="st1" d="M34,143.5l-0.2,0.9l-7,25.8l-13-3.5l6.9-25.4l0.4-1.5c2.8,2.6,6.5,4,10.4,4
	C32.3,143.7,33.1,143.7,34,143.5z"/>
<g id="_Group_2">
	<path id="_Path_11" class="st1" d="M34,207.1l-6.6-24.5c-3.9,3.4-9.7,3.6-13.9,0.5l7.5,27.5L34,207.1z"/>
	<path id="_Path_12" class="st0" d="M31.2,173.2c0,0.2,0,0.3,0,0.5c-0.3,6.1-5.5,10.8-11.7,10.5c-5.7-0.3-10.2-4.8-10.5-10.5
		c0-0.2,0-0.3,0-0.5c-0.5-6.1,4.1-11.5,10.2-12c6.1-0.5,11.5,4.1,12,10.2C31.3,172,31.3,172.6,31.2,173.2z"/>
	<path id="_Path_13" class="st2" d="M27.4,182.6l-0.2-0.8c-4.1,3.3-9.9,3.3-14,0.1l0.3,1.2C17.7,186.2,23.4,186,27.4,182.6z"/>
</g>
<circle id="_Path_14" class="st0" cx="28.1" cy="211.2" r="7.5"/>
<path id="_Path_15" d="M40.8,221.1c0,0.7-0.6,1.3-1.3,1.2c-0.4,0-0.8-0.2-1-0.6c0-0.1-0.1-0.2-0.1-0.2c-0.9-1.5-2.5-2.4-4.3-2.4
	c-2.8,0-5,2.2-5,5c0,0.8,0.2,1.6,0.6,2.4c0.1,0.1,0.1,0.1,0.1,0.2c0.1,0.2,0.1,0.3,0.1,0.5c0,0.7-0.5,1.3-1.2,1.3c0,0-0.1,0-0.1,0
	c-0.4,0-0.8-0.2-1-0.6c-0.1-0.1-0.1-0.1-0.1-0.2c-0.6-1.1-0.9-2.3-0.9-3.6c0-4.1,3.4-7.5,7.5-7.5c2.7,0,5.2,1.4,6.5,3.8
	c0.1,0.1,0.1,0.1,0.1,0.2C40.8,220.8,40.8,221,40.8,221.1z"/>
<path id="_Rectangle_" class="st1" d="M74,26.5h69c1.7,0,3,1.3,3,3v69c0,1.7-1.3,3-3,3H74c-1.7,0-3-1.3-3-3v-69
	C71,27.8,72.3,26.5,74,26.5z"/>
<path id="_Path_16" class="st0" d="M200.8,128.4c0,8.3-6.6,15.1-14.9,15.4h-0.4c-3.8,0-7.5-1.4-10.4-4l0,0
	c-6.3-5.7-6.8-15.4-1.1-21.7c5.7-6.3,15.4-6.8,21.7-1.1c0.4,0.3,0.7,0.7,1.1,1.1l0,0C199.3,120.9,200.8,124.6,200.8,128.4z"/>
<path id="_Path_17" class="st2" d="M198.5,138.9c-2.9,3.7-7.4,5.9-12.1,5.9h-0.3l-0.3-1c4.9-0.1,9.4-2.6,12.2-6.6L198.5,138.9z"/>
<path id="_Path_18" class="st0" d="M46.8,128.4c0,4.3-1.8,8.4-5,11.3l0,0c-2.2,2-4.9,3.3-7.8,3.8c-0.9,0.2-1.7,0.2-2.6,0.2
	c-8.5,0-15.4-6.9-15.3-15.4c0-3.8,1.4-7.4,3.9-10.2l0,0c5.7-6.3,15.4-6.8,21.7-1C44.9,119.9,46.8,124.1,46.8,128.4z"/>
<path id="_Path_19" class="st2" d="M34,143.5l-0.2,0.9c-4.6,1-9.5-0.1-13.1-3.1l0.4-1.5c2.8,2.6,6.5,4,10.4,4
	C32.3,143.7,33.1,143.7,34,143.5z"/>
<path id="_Rectangle_2" class="st1" d="M44,111.5h130c1.7,0,3,1.3,3,3v83c0,1.7-1.3,3-3,3H44c-1.7,0-3-1.3-3-3v-83
	C41,112.8,42.3,111.5,44,111.5z"/>
<path id="_Rectangle_3" class="st1" d="M50,244.5h48c1.7,0,3,1.3,3,3v9c0,1.7-1.3,3-3,3H50c-1.7,0-3-1.3-3-3v-9
	C47,245.8,48.3,244.5,50,244.5z"/>
<path id="_Rectangle_4" class="st1" d="M120,244.5h48c1.7,0,3,1.3,3,3v9c0,1.7-1.3,3-3,3h-48c-1.7,0-3-1.3-3-3v-9
	C117,245.8,118.3,244.5,120,244.5z"/>
<rect id="_Rectangle_5" x="79" y="101.5" class="st0" width="60" height="10"/>
<g id="_Group_3">
	<circle id="_Path_20" class="st3" cx="108.1" cy="136.2" r="11.1"/>
	<circle id="_Path_21" class="st4" cx="108" cy="136" r="9"/>
</g>
<g id="_Group_4">
	<circle id="_Path_22" class="st5" cx="132.6" cy="136.2" r="11.1"/>
	<circle id="_Path_23" class="st6" cx="132.5" cy="136" r="9"/>
</g>
<g id="_Group_5">
	<circle id="_Path_24" class="st7" cx="157.1" cy="136.2" r="11.1"/>
	<circle id="_Path_25" class="st8" cx="157" cy="136" r="9"/>
</g>
<path id="_Rectangle_6" class="st9" d="M51,125.5h39c1.7,0,3,1.3,3,3v51c0,1.7-1.3,3-3,3H51c-1.7,0-3-1.3-3-3v-51
	C48,126.8,49.3,125.5,51,125.5z"/>
<path id="_Rectangle_7" class="st10" d="M51,126.5h39c1.1,0,2,0.9,2,2v51c0,1.1-0.9,2-2,2H51c-1.1,0-2-0.9-2-2v-51
	C49,127.4,49.9,126.5,51,126.5z"/>
<g id="_Group_6">
	<rect id="_Path_26" x="50.5" y="128" class="st11" width="40" height="52"/>
	<line id="_Path_27" class="st11" x1="51" y1="171" x2="91" y2="171"/>
	<line id="_Path_28" class="st11" x1="51" y1="163" x2="91" y2="163"/>
	<line id="_Path_29" class="st11" x1="91" y1="155" x2="51" y2="155"/>
	<line id="_Path_30" class="st11" x1="51" y1="146" x2="91" y2="146"/>
	<line id="_Path_31" class="st11" x1="51" y1="136" x2="91" y2="136"/>
	<line id="_Path_32" class="st11" x1="84.5" y1="127.5" x2="84.5" y2="179.5"/>
	<line id="_Path_33" class="st11" x1="77.5" y1="127.5" x2="77.5" y2="179.5"/>
	<line id="_Path_34" class="st11" x1="71.5" y1="127.5" x2="71.5" y2="179.5"/>
	<line id="_Path_35" class="st11" x1="63.5" y1="127.5" x2="63.5" y2="179.5"/>
	<line id="_Path_36" class="st11" x1="57.5" y1="127.5" x2="57.5" y2="179.5"/>
</g>
<polyline id="_Path_37" class="st12" points="51,155 58,155 60.8,150.9 64,155 72,135.2 78,170.6 78.2,155 81,155 85,147.6 
	86.8,155 91,155 "/>
<g id="_Group_7">
	<path id="_Rectangle_8" class="st13" d="M100,156.5h65c1.7,0,3,1.3,3,3v20c0,1.7-1.3,3-3,3h-65c-1.7,0-3-1.3-3-3v-20
		C97,157.8,98.3,156.5,100,156.5z"/>
	<line id="_Path_38" class="st14" x1="100" y1="163" x2="165" y2="163"/>
	<line id="_Path_39" class="st14" x1="100" y1="170" x2="165" y2="170"/>
	<line id="_Path_40" class="st14" x1="100" y1="177" x2="165" y2="177"/>
	<circle id="_Path_41" class="st4" cx="149.8" cy="162.9" r="3.5"/>
	<circle id="_Path_42" class="st6" cx="119.8" cy="169.9" r="3.5"/>
	<circle id="_Path_43" class="st8" cx="162.8" cy="176.9" r="3.5"/>
</g>
<circle id="_Path_44" class="st15" cx="92.4" cy="50.1" r="12.3"/>
<circle id="_Path_45" class="st15" cx="126.4" cy="50.1" r="12.3"/>
<g id="_Group_8">
	<path id="_Path_46" class="st16" d="M83.4,35c7-2.9,11.2-2.9,18.2,0"/>
</g>
<g id="_Group_9">
	<path id="_Path_47" class="st16" d="M117.3,36.1c7-2.9,11.2-2.9,18.1,0"/>
</g>
<circle id="_Path_48" class="st3" cx="91.9" cy="49.6" r="2.5"/>
<circle id="_Path_49" class="st8" cx="108.9" cy="67.6" r="2.5"/>
<circle id="_Path_50" class="st3" cx="126.9" cy="50.6" r="2.5"/>
<g id="_Group_10">
	<path id="_Rectangle_9" class="st17" d="M127.3,85.1c-11.7,2.9-24,2.9-35.7,0c-0.6-0.1-1-0.7-0.9-1.3c0,0,0,0,0,0l1.1-4
		c0.2-0.5,0.7-0.9,1.3-0.7c10.8,2,21.9,2,32.8,0c0.5-0.2,1.1,0.2,1.3,0.7l1.1,4C128.3,84.5,127.9,85,127.3,85.1
		C127.3,85.1,127.3,85.1,127.3,85.1z"/>
	<path id="_Rectangle_10" class="st16" d="M127.2,85.3c-11.7,2.9-23.9,2.9-35.6,0c-1.2-0.2-1.9-1.3-1.7-2.5c0,0,0,0,0,0l1-3.6
		c0.3-1.1,1.5-1.7,2.6-1.4c10.4,2.7,21.4,2.7,31.8,0c1.1-0.3,2.2,0.3,2.6,1.4l1,3.6C129.1,83.9,128.4,85.1,127.2,85.3
		C127.2,85.3,127.2,85.3,127.2,85.3z"/>
	<path id="_Path_51" class="st10" d="M98,83.7c-1.2-0.2-1.8-0.3-2.9-0.5c-0.3-0.1-0.6,0.1-0.7,0.4l-0.2,0.8c1.6,0.3,2.4,0.5,4.1,0.8
		l0.1-0.9C98.5,84,98.3,83.7,98,83.7z"/>
	<path id="_Path_52" class="st10" d="M98.3,81.7c-1.1-0.2-1.7-0.3-2.8-0.5c-0.3,0-0.5-0.3-0.5-0.6c0,0,0-0.1,0-0.1l0.2-0.8
		c1.5,0.3,2.3,0.5,3.8,0.7l-0.1,0.9C98.8,81.5,98.6,81.7,98.3,81.7z"/>
	<path id="_Path_53" class="st10" d="M103.3,82.3c-1.2-0.1-1.7-0.2-2.9-0.3c-0.3,0-0.5-0.3-0.5-0.6c0,0,0,0,0,0l0.1-0.9
		c1.5,0.2,2.3,0.3,3.9,0.4l-0.1,0.9C103.8,82.1,103.6,82.3,103.3,82.3z"/>
	<path id="_Path_54" class="st10" d="M108.3,82.6c-1.2,0-1.7,0-2.9-0.1c-0.3,0-0.5-0.2-0.5-0.5c0,0,0,0,0,0l0.1-0.9
		c1.6,0.1,2.3,0.1,3.9,0.1v0.9C108.9,82.4,108.6,82.6,108.3,82.6C108.3,82.6,108.3,82.6,108.3,82.6z"/>
	<path id="_Path_55" class="st10" d="M113.4,82.5c-1.2,0.1-1.7,0.1-2.9,0.1c-0.3,0-0.5-0.2-0.5-0.5v-0.9c1.6,0,2.3,0,3.9-0.1
		l0.1,0.9C113.9,82.3,113.7,82.5,113.4,82.5C113.4,82.5,113.4,82.5,113.4,82.5z"/>
	<path id="_Path_56" class="st10" d="M118.4,82c-1.1,0.2-1.7,0.2-2.9,0.3c-0.3,0-0.5-0.2-0.6-0.4l-0.1-0.9c1.6-0.1,2.3-0.2,3.9-0.4
		l0.1,0.9C118.9,81.7,118.7,82,118.4,82C118.4,82,118.4,82,118.4,82z"/>
	<path id="_Path_57" class="st10" d="M123.3,81.1c-1.1,0.2-1.7,0.3-2.8,0.5c-0.3,0.1-0.6-0.1-0.6-0.4l-0.1-0.9
		c1.5-0.2,2.3-0.4,3.8-0.7l0.2,0.8C123.8,80.8,123.6,81.1,123.3,81.1C123.4,81.1,123.4,81.1,123.3,81.1z"/>
	<path id="_Path_58" class="st10" d="M103.1,84.3c-1.2-0.1-1.8-0.2-2.9-0.3c-0.3,0-0.6,0.1-0.6,0.4l-0.1,0.9
		c1.7,0.2,2.5,0.3,4.1,0.4l0.1-0.9C103.6,84.6,103.4,84.3,103.1,84.3z"/>
	<path id="_Path_59" class="st10" d="M108.3,84.6c-1.2,0-1.8,0-3-0.1c-0.3,0-0.5,0.2-0.6,0.5l-0.1,0.9c1.7,0.1,2.5,0.1,4.1,0.2v-0.9
		C108.8,84.8,108.6,84.6,108.3,84.6z"/>
	<path id="_Path_60" class="st10" d="M113.5,84.5c-1.2,0.1-1.8,0.1-3,0.1c-0.3,0-0.5,0.2-0.5,0.5c0,0,0,0,0,0V86
		c1.7,0,2.5,0,4.1-0.2L114,85C114,84.7,113.7,84.5,113.5,84.5z"/>
	<path id="_Path_61" class="st10" d="M118.6,84c-1.2,0.2-1.8,0.2-2.9,0.3c-0.3,0-0.5,0.3-0.5,0.6l0.1,0.9c1.7-0.1,2.5-0.2,4.1-0.4
		l-0.1-0.9C119.2,84.1,118.9,83.9,118.6,84z"/>
	<path id="_Path_62" class="st10" d="M123.8,83.1c-1.2,0.2-1.8,0.3-2.9,0.5c-0.3,0-0.5,0.3-0.5,0.6l0.1,0.9c1.6-0.3,2.5-0.4,4.1-0.8
		l-0.2-0.8C124.3,83.2,124,83.1,123.8,83.1z"/>
</g>
<rect id="_Rectangle_11" x="58" y="200.5" class="st1" width="29.2" height="18.2"/>
<rect id="_Rectangle_12" x="58" y="222.5" class="st1" width="29.2" height="18.2"/>
<rect id="_Rectangle_13" x="131.7" y="200.5" class="st1" width="29.2" height="18.2"/>
<rect id="_Rectangle_14" x="131.7" y="222.5" class="st1" width="29.2" height="18.2"/>
<rect id="_Rectangle_15" x="57.1" y="218.7" class="st0" width="31" height="3.9"/>
<rect id="_Rectangle_16" x="130.8" y="218.7" class="st0" width="31" height="3.9"/>
<rect id="_Rectangle_17" x="130.8" y="240.7" class="st0" width="31" height="3.9"/>
<rect id="_Rectangle_18" x="58" y="200.5" class="st18" width="29.2" height="1.9"/>
<rect id="_Rectangle_19" x="58" y="222.5" class="st18" width="29.2" height="2"/>
<rect id="_Rectangle_20" x="131.7" y="200.5" class="st18" width="29.2" height="1.9"/>
<rect id="_Rectangle_21" x="131.7" y="222.5" class="st18" width="29.2" height="2"/>
<rect id="_Rectangle_22" x="56.9" y="240.7" class="st0" width="31" height="3.9"/>
<path id="_Path_63" class="st19" d="M63.9,45.7L63.9,45.7"/>
<rect id="_Rectangle_23" x="79" y="101.5" class="st17" width="60" height="1.8"/>
<path id="_Path_64" class="st0" d="M110,15.9v10.6h-2V15.9c0.1,0.1,0.1,0.1,0.2,0.1h0.2c0.1,0,0.1,0,0.2,0h0.6
	C109.5,16.1,109.7,16,110,15.9C110,15.9,110,15.9,110,15.9z"/>
<path id="_Path_65" class="st0" d="M112.5,12.5c0,0.2,0,0.3,0,0.5c-0.2,1.3-1.1,2.5-2.4,2.9H110l0,0c-0.2,0.1-0.5,0.1-0.8,0.2h-0.6
	c-0.1,0-0.1,0-0.2,0h-0.2h-0.2c-0.1,0-0.2-0.1-0.4-0.1c-1.3-0.5-2.2-1.6-2.4-2.9c0-0.2,0-0.3,0-0.5c0.3-2,2.2-3.3,4.2-3
	C111.1,9.8,112.3,11,112.5,12.5z"/>
<path id="_Path_66" class="st17" d="M110,16v1c-0.4,0.1-0.7,0.2-1.1,0.2c-0.3,0-0.6,0-0.9-0.1v-1c0.2,0.1,0.4,0.1,0.7,0.1h0.6
	C109.5,16.1,109.7,16,110,16L110,16L110,16z"/>
</svg>
